<svg width="512" height="512" viewBox="0 0 512 512" fill="none" xmlns="http://www.w3.org/2000/svg">
<g clip-path="url(#clip0_48_40)">
<g clip-path="url(#clip1_48_40)">
<path d="M512 256C512 114.615 397.385 0 256 0C114.615 0 0 114.615 0 256C0 397.385 114.615 512 256 512C397.385 512 512 397.385 512 256Z" fill="#0369A1"/>
<path d="M178.222 356C172.111 356 166.88 353.824 162.528 349.472C158.176 345.12 156 339.889 156 333.778V178.222C156 172.111 158.176 166.88 162.528 162.528C166.88 158.176 172.111 156 178.222 156H289.333L356 222.667V333.778C356 339.889 353.824 345.12 349.472 349.472C345.12 353.824 339.889 356 333.778 356H178.222ZM200.444 311.556H311.556V289.333H200.444V311.556ZM200.444 267.111H311.556V244.889H200.444V267.111ZM200.444 222.667H278.222V200.444H200.444V222.667Z" fill="white"/>
</g>
</g>
<defs>
<clipPath id="clip0_48_40">
<rect width="512" height="512" fill="white"/>
</clipPath>
<clipPath id="clip1_48_40">
<rect width="512" height="512" fill="white"/>
</clipPath>
</defs>
</svg>
