<svg xmlns="http://www.w3.org/2000/svg" width="512" height="512" fill="none" viewBox="0 0 512 512"><g clip-path="url(#clip0_48_11)"><g clip-path="url(#clip1_48_11)"><path fill="#0369A1" d="M512 256C512 114.615 397.385 0 256 0C114.615 0 0 114.615 0 256C0 397.385 114.615 512 256 512C397.385 512 512 397.385 512 256Z"/><mask id="mask0_48_11" style="mask-type:alpha" width="256" height="256" x="128" y="128" maskUnits="userSpaceOnUse"><rect width="256" height="256" x="128" y="128" fill="#D9D9D9"/></mask><g mask="url(#mask0_48_11)"><path fill="#fff" d="M202.666 320C184.889 320 169.777 313.778 157.333 301.333C144.889 288.889 138.666 273.778 138.666 256C138.666 238.222 144.889 223.111 157.333 210.667C169.777 198.222 184.889 192 202.666 192C217.066 192 229.644 196.044 240.4 204.133C251.155 212.222 258.666 222.4 262.933 234.667H373.333V277.333H352V320H309.333V277.333H262.933C258.666 289.6 251.155 299.778 240.4 307.867C229.644 315.956 217.066 320 202.666 320ZM202.666 277.333C208.533 277.333 213.555 275.244 217.733 271.067C221.911 266.889 224 261.867 224 256C224 250.133 221.911 245.111 217.733 240.933C213.555 236.756 208.533 234.667 202.666 234.667C196.8 234.667 191.777 236.756 187.6 240.933C183.422 245.111 181.333 250.133 181.333 256C181.333 261.867 183.422 266.889 187.6 271.067C191.777 275.244 196.8 277.333 202.666 277.333Z"/></g></g></g><defs><clipPath id="clip0_48_11"><rect width="512" height="512" fill="#fff"/></clipPath><clipPath id="clip1_48_11"><rect width="512" height="512" fill="#fff"/></clipPath></defs></svg>