<svg xmlns="http://www.w3.org/2000/svg" width="512" height="512" fill="none" viewBox="0 0 512 512"><rect width="512" height="512" fill="#171717"/><g clip-path="url(#clip0_11_3)"><path fill="#0369A1" d="M416 256C416 167.634 344.366 96 256 96C167.634 96 96 167.634 96 256C96 344.366 167.634 416 256 416C344.366 416 416 344.366 416 256Z"/><path fill="#fff" d="M161.893 274.028V222.107H170.691L187.854 256.577L205.016 222.107H213.814V274.028H204.656V243.02L189.584 274.028H186.123L171.051 243.02V274.028H161.893ZM228.912 291.335L235.33 273.704L219.609 235.087H229.777L240.017 261.589L250.185 235.087H259.992L237.998 291.335H228.912ZM265.063 274.028V235.087H273.716V241.361C274.726 239.558 276.096 238.008 277.899 236.962C280.711 235.232 284.389 234.655 287.922 235.087V244.246C285.759 243.597 282.586 243.813 280.278 244.895C276.817 246.481 274.942 249.654 274.942 254.125V274.028H265.063ZM295.502 229.679V221.025H305.309V229.679H295.502ZM295.502 274.028V235.087H305.309V274.028H295.502ZM333.642 275.11C321.887 275.11 313.955 266.601 313.955 254.558C313.955 242.371 322.104 234.006 333.642 234.006C345.396 234.006 353.401 242.515 353.401 254.558C353.401 266.673 345.324 275.11 333.642 275.11ZM324.339 254.558C324.339 261.553 327.512 265.952 333.642 265.952C339.915 265.952 343.016 261.264 343.016 254.558C343.016 247.635 339.843 243.164 333.642 243.164C327.224 243.164 324.339 247.779 324.339 254.558Z"/><path fill="#fff" d="M290.578 306.704V290.668H284.439V287.234H300.394V290.668H294.256V306.704H290.578ZM302.567 306.704V287.234H315.277V290.668H306.245V294.833H313.654V298.267H306.245V303.27H315.277V306.704H302.567ZM316.896 306.704L323.44 296.861L317.085 287.234H321.601L325.739 293.724L329.822 287.234H334.365L328.01 296.861L334.527 306.704H330.011L325.739 299.998L321.439 306.704H316.896ZM342.286 306.704V290.668H336.148V287.234H352.103V290.668H345.964V306.704H342.286Z"/></g><defs><clipPath id="clip0_11_3"><rect width="320" height="320" fill="#fff" transform="translate(96 96)"/></clipPath></defs></svg>