<svg xmlns="http://www.w3.org/2000/svg" width="1200" height="630" fill="none" viewBox="0 0 1200 630"><rect width="1200" height="630" fill="#0369A1" rx="12"/><g clip-path="url(#clip0_42_7)"><g clip-path="url(#clip1_42_7)"><path fill="#fff" d="M380.5 315C380.5 244.308 323.192 187 252.5 187C181.808 187 124.5 244.308 124.5 315C124.5 385.692 181.808 443 252.5 443C323.192 443 380.5 385.692 380.5 315Z"/><path fill="#0369A1" d="M177.214 329.423V287.886H184.253L197.983 315.461L211.713 287.886H218.751V329.423H211.425V304.616L199.367 329.423H196.598L184.541 304.616V329.423H177.214ZM230.829 343.268L235.964 329.163L223.387 298.27H231.522L239.714 319.471L247.848 298.27H255.694L238.098 343.268H230.829ZM259.75 329.423V298.27H266.673V303.289C267.481 301.847 268.577 300.606 270.019 299.77C272.269 298.385 275.211 297.924 278.038 298.27V305.596C276.307 305.077 273.769 305.25 271.923 306.116C269.154 307.385 267.654 309.923 267.654 313.5V329.423H259.75ZM284.102 293.943V287.02H291.947V293.943H284.102ZM284.102 329.423V298.27H291.947V329.423H284.102ZM314.613 330.288C305.21 330.288 298.864 323.48 298.864 313.846C298.864 304.097 305.383 297.404 314.613 297.404C324.017 297.404 330.42 304.212 330.42 313.846C330.42 323.538 323.959 330.288 314.613 330.288ZM307.171 313.846C307.171 319.442 309.71 322.961 314.613 322.961C319.632 322.961 322.113 319.211 322.113 313.846C322.113 308.308 319.575 304.731 314.613 304.731C309.479 304.731 307.171 308.423 307.171 313.846Z"/><path fill="#0369A1" d="M280.162 355.563V342.735H275.252V339.987H288.015V342.735H283.105V355.563H280.162ZM289.753 355.563V339.987H299.921V342.735H292.696V346.066H298.623V348.814H292.696V352.816H299.921V355.563H289.753ZM301.217 355.563L306.452 347.689L301.368 339.987H304.981L308.291 345.179L311.558 339.987H315.192L310.108 347.689L315.322 355.563H311.709L308.291 350.198L304.851 355.563H301.217ZM321.529 355.563V342.735H316.618V339.987H329.382V342.735H324.471V355.563H321.529Z"/></g></g><path fill="#fff" d="M453.46 364.5V272.34H465.556L498.964 341.652L532.18 272.34H544.404V364.436H531.732V301.396L501.972 364.5H495.892L466.068 301.396V364.5H453.46ZM571.679 395.22L585.055 358.804L585.247 369.556L555.103 295.38H569.055L591.583 352.66H587.487L608.991 295.38H622.559L584.415 395.22H571.679ZM632.585 364.5V295.38H644.489V312.148L642.825 309.972C643.678 307.753 644.788 305.727 646.153 303.892C647.518 302.015 649.097 300.479 650.889 299.284C652.638 298.004 654.58 297.023 656.713 296.34C658.889 295.615 661.108 295.188 663.369 295.06C665.63 294.889 667.806 294.996 669.897 295.38V307.924C667.636 307.327 665.118 307.156 662.345 307.412C659.614 307.668 657.097 308.543 654.793 310.036C652.617 311.444 650.889 313.151 649.609 315.156C648.372 317.161 647.476 319.401 646.921 321.876C646.366 324.308 646.089 326.889 646.089 329.62V364.5H632.585ZM683.365 284.052V271.06H696.741V284.052H683.365ZM683.365 364.5V295.38H696.741V364.5H683.365ZM745.976 366.42C739.064 366.42 733.069 364.863 727.992 361.748C722.915 358.633 718.989 354.345 716.216 348.884C713.485 343.38 712.12 337.044 712.12 329.876C712.12 322.665 713.528 316.329 716.344 310.868C719.16 305.364 723.107 301.097 728.184 298.068C733.261 294.996 739.192 293.46 745.976 293.46C752.888 293.46 758.883 295.017 763.96 298.132C769.037 301.247 772.963 305.535 775.736 310.996C778.509 316.457 779.896 322.751 779.896 329.876C779.896 337.087 778.488 343.444 775.672 348.948C772.899 354.409 768.973 358.697 763.896 361.812C758.819 364.884 752.845 366.42 745.976 366.42ZM745.976 353.812C752.589 353.812 757.517 351.593 760.76 347.156C764.045 342.676 765.688 336.916 765.688 329.876C765.688 322.665 764.024 316.905 760.696 312.596C757.411 308.244 752.504 306.068 745.976 306.068C741.496 306.068 737.805 307.092 734.904 309.14C732.003 311.145 729.848 313.94 728.44 317.524C727.032 321.065 726.328 325.183 726.328 329.876C726.328 337.129 727.992 342.932 731.32 347.284C734.648 351.636 739.533 353.812 745.976 353.812ZM842.561 364.5V284.948H811.905V272.34H886.593V284.948H855.937V364.5H842.561ZM917.241 366.42C910.372 366.42 904.334 364.927 899.129 361.94C893.966 358.911 889.934 354.708 887.033 349.332C884.174 343.913 882.745 337.641 882.745 330.516C882.745 322.964 884.153 316.415 886.969 310.868C889.828 305.321 893.796 301.033 898.873 298.004C903.95 294.975 909.86 293.46 916.601 293.46C923.641 293.46 929.636 295.103 934.585 298.388C939.534 301.631 943.225 306.26 945.657 312.276C948.132 318.292 949.113 325.439 948.601 333.716H935.225V328.852C935.14 320.831 933.604 314.9 930.617 311.06C927.673 307.22 923.172 305.3 917.113 305.3C910.414 305.3 905.38 307.412 902.009 311.636C898.638 315.86 896.953 321.961 896.953 329.94C896.953 337.535 898.638 343.423 902.009 347.604C905.38 351.743 910.244 353.812 916.601 353.812C920.782 353.812 924.388 352.873 927.417 350.996C930.489 349.076 932.878 346.345 934.585 342.804L947.705 346.964C945.017 353.151 940.942 357.951 935.481 361.364C930.02 364.735 923.94 366.42 917.241 366.42ZM892.601 333.716V323.284H941.945V333.716H892.601ZM952.78 364.5L978.636 329.556L953.356 295.38H969.228L986.444 319.124L1003.47 295.38H1019.34L994.06 329.556L1019.98 364.5H1004.04L986.444 339.988L968.716 364.5H952.78ZM1069.76 364.5C1065.41 365.353 1061.14 365.716 1056.96 365.588C1052.78 365.46 1049.05 364.649 1045.76 363.156C1042.48 361.663 1040 359.316 1038.34 356.116C1036.84 353.257 1036.03 350.356 1035.91 347.412C1035.82 344.425 1035.78 341.055 1035.78 337.3V276.18H1049.22V336.66C1049.22 339.433 1049.24 341.844 1049.28 343.892C1049.37 345.94 1049.82 347.668 1050.63 349.076C1052.16 351.721 1054.59 353.236 1057.92 353.62C1061.29 353.961 1065.24 353.812 1069.76 353.172V364.5ZM1022.53 306.132V295.38H1069.76V306.132H1022.53Z"/><defs><clipPath id="clip0_42_7"><rect width="256" height="256" fill="#fff" transform="translate(124.5 187)"/></clipPath><clipPath id="clip1_42_7"><rect width="256" height="256" fill="#fff" transform="translate(124.5 187)"/></clipPath></defs></svg>