<svg xmlns="http://www.w3.org/2000/svg" width="512" height="512" fill="none" viewBox="0 0 512 512"><g clip-path="url(#clip0_11_274)"><g clip-path="url(#clip1_11_274)"><path fill="#0369A1" d="M512 256C512 114.615 397.385 0 256 0C114.615 0 0 114.615 0 256C0 397.385 114.615 512 256 512C397.385 512 512 397.385 512 256Z"/><path fill="#fff" d="M105.429 284.845V201.771H119.505L146.966 256.923L174.426 201.771H188.503V284.845H173.849V235.232L149.735 284.845H144.196L120.082 235.232V284.845H105.429ZM212.658 312.536L222.927 284.326L197.774 222.54H214.043L230.427 264.942L246.696 222.54H262.387L227.196 312.536H212.658ZM270.5 284.845V222.54H284.346V232.578C285.961 229.693 288.153 227.213 291.038 225.54C295.538 222.77 301.422 221.847 307.076 222.54V237.193C303.614 236.155 298.537 236.501 294.845 238.231C289.307 240.77 286.307 245.847 286.307 253V284.845H270.5ZM319.203 213.886V200.041H334.895V213.886H319.203ZM319.203 284.845V222.54H334.895V284.845H319.203ZM380.227 286.576C361.42 286.576 348.728 272.961 348.728 253.692C348.728 234.193 361.766 220.809 380.227 220.809C399.034 220.809 411.841 234.424 411.841 253.692C411.841 273.076 398.918 286.576 380.227 286.576ZM365.343 253.692C365.343 264.884 370.419 271.922 380.227 271.922C390.265 271.922 395.226 264.423 395.226 253.692C395.226 242.616 390.149 235.462 380.227 235.462C369.958 235.462 365.343 242.847 365.343 253.692Z"/><path fill="#fff" d="M311.325 337.127V311.469H301.503V305.974H327.031V311.469H317.209V337.127H311.325ZM330.507 337.127V305.974H350.843V311.469H336.391V318.132H348.247V323.627H336.391V331.632H350.843V337.127H330.507ZM353.433 337.127L363.904 321.377L353.736 305.974H360.962L367.582 316.358L374.115 305.974H381.384L371.216 321.377L381.644 337.127H374.418L367.582 326.396L360.702 337.127H353.433ZM394.058 337.127V311.469H384.236V305.974H409.764V311.469H399.942V337.127H394.058Z"/></g></g><defs><clipPath id="clip0_11_274"><rect width="512" height="512" fill="#fff"/></clipPath><clipPath id="clip1_11_274"><rect width="512" height="512" fill="#fff"/></clipPath></defs></svg>