<svg xmlns="http://www.w3.org/2000/svg" width="914" height="256" fill="none" viewBox="0 0 914 256"><rect width="914" height="256" fill="#0369A1" rx="12"/><g clip-path="url(#clip0_14_7)"><g clip-path="url(#clip1_14_7)"><path fill="#fff" d="M280 128C280 77.1898 238.81 36 188 36C137.19 36 96 77.1898 96 128C96 178.81 137.19 220 188 220C238.81 220 280 178.81 280 128Z"/><path fill="#0369A1" d="M133.888 138.366V108.512H138.947L148.816 128.332L158.684 108.512H163.743V138.366H158.477V120.536L149.811 138.366H147.821L139.154 120.536V138.366H133.888ZM172.424 148.318L176.114 138.18L167.075 115.975H172.922L178.81 131.214L184.656 115.975H190.295L177.649 148.318H172.424ZM193.211 138.366V115.975H198.187V119.583C198.767 118.546 199.555 117.655 200.592 117.053C202.209 116.058 204.324 115.726 206.355 115.975V121.241C205.111 120.868 203.287 120.992 201.96 121.614C199.97 122.527 198.892 124.351 198.892 126.922V138.366H193.211ZM210.714 112.865V107.89H216.353V112.865H210.714ZM210.714 138.366V115.975H216.353V138.366H210.714ZM232.644 138.988C225.885 138.988 221.324 134.095 221.324 127.171C221.324 120.163 226.01 115.353 232.644 115.353C239.403 115.353 244.005 120.246 244.005 127.171C244.005 134.137 239.361 138.988 232.644 138.988ZM227.295 127.171C227.295 131.193 229.119 133.722 232.644 133.722C236.251 133.722 238.034 131.027 238.034 127.171C238.034 123.19 236.21 120.619 232.644 120.619C228.954 120.619 227.295 123.273 227.295 127.171Z"/><path fill="#0369A1" d="M207.882 157.155V147.934H204.353V145.959H213.527V147.934H209.997V157.155H207.882ZM214.776 157.155V145.959H222.084V147.934H216.891V150.329H221.151V152.304H216.891V155.18H222.084V157.155H214.776ZM223.015 157.155L226.778 151.495L223.124 145.959H225.721L228.1 149.691L230.448 145.959H233.06L229.406 151.495L233.153 157.155H230.556L228.1 153.299L225.627 157.155H223.015ZM237.615 157.155V147.934H234.085V145.959H243.259V147.934H239.729V157.155H237.615Z"/></g></g><path fill="#fff" d="M350.72 164.5V95.38H359.792L384.848 147.364L409.76 95.38H418.928V164.452H409.424V117.172L387.104 164.5H382.544L360.176 117.172V164.5H350.72ZM439.384 187.54L447.928 164.26L426.952 112.66H437.416L452.728 151.636L467.368 112.66H477.544L448.936 187.54H439.384ZM485.064 164.5V112.66H493.992V120.916C495.192 118.756 496.824 116.884 498.792 115.588C502.68 112.708 508.392 111.796 513.048 112.66V122.068C509.688 121.156 505.176 121.444 501.72 123.652C496.824 126.772 495.192 132.244 495.192 138.34V164.5H485.064ZM523.149 104.164V94.42H533.181V104.164H523.149ZM523.149 164.5V112.66H533.181V164.5H523.149ZM570.107 165.94C554.555 165.94 544.715 154.612 544.715 138.532C544.715 122.308 554.843 111.22 570.107 111.22C585.659 111.22 595.547 122.5 595.547 138.532C595.547 154.756 585.563 165.94 570.107 165.94ZM555.371 138.532C555.371 149.476 560.411 156.484 570.107 156.484C579.995 156.484 584.891 149.14 584.891 138.532C584.891 127.684 579.899 120.676 570.107 120.676C560.027 120.676 555.371 127.972 555.371 138.532ZM642.546 164.5V104.836H619.554V95.38H675.57V104.836H652.578V164.5H642.546ZM698.556 165.94C683.052 165.94 672.684 155.044 672.684 139.012C672.684 122.02 682.908 111.22 698.076 111.22C713.916 111.22 723.132 122.836 722.076 141.412H683.436C684.252 151.012 689.34 156.484 698.076 156.484C704.316 156.484 709.02 153.556 711.564 148.228L721.404 151.348C717.372 160.612 708.588 165.94 698.556 165.94ZM683.676 133.588H711.804C710.748 124.468 706.428 120.1 698.46 120.1C689.868 120.1 684.972 124.804 683.676 133.588ZM725.21 164.5L744.602 138.292L725.642 112.66H737.546L750.458 130.468L763.226 112.66H775.13L756.17 138.292L775.61 164.5H763.658L750.458 146.116L737.162 164.5H725.21ZM812.947 164.5C803.203 166.42 793.171 165.412 789.379 158.212C787.123 153.94 787.459 149.764 787.459 144.1V120.724H777.523V112.66H787.459V98.26H797.539V112.66H812.947V120.724H797.539V143.62C797.539 147.796 797.347 150.82 798.595 152.932C800.899 156.868 806.179 157.012 812.947 156.004V164.5Z"/><defs><clipPath id="clip0_14_7"><rect width="184" height="184" fill="#fff" transform="translate(96 36)"/></clipPath><clipPath id="clip1_14_7"><rect width="184" height="184" fill="#fff" transform="translate(96 36)"/></clipPath></defs></svg>